<?xml version="1.0" encoding="utf-8"?>
<svg viewBox="215.425 207.793 18.05 21" xmlns="http://www.w3.org/2000/svg">
  <path d="M 219.425 217.793 L 227.425 217.793 L 227.425 219.793 L 219.425 219.793 L 219.425 217.793 M 221.425 225.793 L 217.425 225.793 L 217.425 209.793 L 224.425 209.793 L 224.425 214.793 L 229.425 214.793 L 229.425 217.893 L 231.425 215.893 L 231.425 213.793 L 225.425 207.793 L 217.425 207.793 C 216.321 207.793 215.425 208.688 215.425 209.793 L 215.425 225.793 C 215.425 226.897 216.321 227.793 217.425 227.793 L 221.425 227.793 L 221.425 225.793 M 219.425 223.793 L 223.525 223.793 L 224.425 222.893 L 224.425 221.793 L 219.425 221.793 L 219.425 223.793 M 231.625 218.793 C 231.725 218.793 231.925 218.893 232.025 218.993 L 233.325 220.293 C 233.525 220.493 233.525 220.893 233.325 221.093 L 232.325 222.093 L 230.225 219.993 L 231.225 218.993 C 231.325 218.893 231.425 218.793 231.625 218.793 M 231.625 222.693 L 225.525 228.793 L 223.425 228.793 L 223.425 226.693 L 229.525 220.593 L 231.625 222.693 Z" style="fill: rgb(255, 255, 255);" transform="matrix(1, 0, 0, 1, 7.105427357601002e-15, 7.105427357601002e-15)"/>
</svg>